<svg width="31" height="30" viewBox="0 0 31 30" fill="none" xmlns="http://www.w3.org/2000/svg">
<rect x="0.0487213" width="30" height="30" rx="5" fill="#15101C"/>
<path d="M22.9868 10.1743L11.9868 21.1743C11.9229 21.2382 11.8471 21.2889 11.7637 21.3235C11.6802 21.3581 11.5907 21.3759 11.5004 21.3759C11.41 21.3759 11.3206 21.3581 11.2371 21.3235C11.1537 21.2889 11.0778 21.2382 11.014 21.1743L6.20148 16.3618C6.07247 16.2328 6 16.0578 6 15.8754C6 15.6929 6.07247 15.518 6.20148 15.389C6.33048 15.26 6.50544 15.1875 6.68788 15.1875C6.87032 15.1875 7.04529 15.26 7.17429 15.389L11.5004 19.7159L22.014 9.20148C22.143 9.07247 22.3179 9 22.5004 9C22.6828 9 22.8578 9.07247 22.9868 9.20148C23.1158 9.33048 23.1883 9.50544 23.1883 9.68788C23.1883 9.87032 23.1158 10.0453 22.9868 10.1743Z" fill="#9E78CF"/>
</svg>
