<svg width="21" height="21" viewBox="0 0 21 21" fill="none" xmlns="http://www.w3.org/2000/svg">
<path d="M20 0.499987C20.2155 0.715475 20.3366 1.00774 20.3366 1.31249C20.3366 1.61723 20.2155 1.9095 20 2.12499L11.875 10.25L20 18.375C20.2155 18.5905 20.3366 18.8828 20.3366 19.1875C20.3366 19.4923 20.2155 19.7845 20 20C19.7846 20.2155 19.4923 20.3366 19.1875 20.3366C18.8828 20.3366 18.5905 20.2155 18.375 20L10.25 11.875L2.12502 20C1.90953 20.2155 1.61726 20.3366 1.31252 20.3366C1.00777 20.3366 0.715502 20.2155 0.500013 20C0.284525 19.7845 0.163465 19.4923 0.163465 19.1875C0.163465 18.8828 0.284525 18.5905 0.500013 18.375L8.62502 10.25L0.500013 2.12499C0.284525 1.9095 0.163465 1.61723 0.163465 1.31249C0.163465 1.00774 0.284525 0.715475 0.500013 0.499987C0.715502 0.284498 1.00777 0.163437 1.31252 0.163437C1.61726 0.163437 1.90953 0.284498 2.12502 0.499987L10.25 8.625L18.375 0.499987C18.5905 0.284498 18.8828 0.163437 19.1875 0.163437C19.4923 0.163437 19.7846 0.284498 20 0.499987Z" fill="#9E78CF"/>
</svg>
